{"asset":{"version":"2.0","generator":"tools/build-hardware.mjs"},"scene":0,"scenes":[{"nodes":[0]}],"nodes":[{"name":"alsep","mesh":0,"children":[1,2]},{"name":"gold","mesh":1},{"name":"dark","mesh":2}],"meshes":[{"name":"silver","primitives":[{"attributes":{"POSITION":0,"NORMAL":1},"material":0,"mode":4}]},{"name":"gold","primitives":[{"attributes":{"POSITION":2,"NORMAL":3},"material":1,"mode":4}]},{"name":"dark","primitives":[{"attributes":{"POSITION":4,"NORMAL":5},"material":2,"mode":4}]}],"materials":[{"name":"silver","doubleSided":true,"pbrMetallicRoughness":{"baseColorFactor":[0.72,0.72,0.75,1],"metallicFactor":0.2,"roughnessFactor":0.7}},{"name":"gold","doubleSided":true,"pbrMetallicRoughness":{"baseColorFactor":[0.73,0.53,0.19,1],"metallicFactor":0.7,"roughnessFactor":0.45}},{"name":"dark","doubleSided":true,"pbrMetallicRoughness":{"baseColorFactor":[0.06,0.06,0.07,1],"metallicFactor":0.1,"roughnessFactor":0.9}}],"buffers":[{"byteLength":86400,"uri":"data:application/octet-stream;base64,"}],"bufferViews":[{"buffer":0,"byteOffset":0,"byteLength":9288,"target":34962},{"buffer":0,"byteOffset":9288,"byteLength":9288,"target":34962},{"buffer":0,"byteOffset":18576,"byteLength":3240,"target":34962},{"buffer":0,"byteOffset":21816,"byteLength":3240,"target":34962},{"buffer":0,"byteOffset":25056,"byteLength":30672,"target":34962},{"buffer":0,"byteOffset":55728,"byteLength":30672,"target":34962}],"accessors":[{"bufferView":0,"byteOffset":0,"componentType":5126,"count":774,"type":"VEC3","min":[-1.5616969257289115,-0.007527540939118762,-1.8499999999999999],"max":[1.23,1.282794782784191,1.234]},{"bufferView":1,"byteOffset":0,"componentType":5126,"count":774,"type":"VEC3"},{"bufferView":2,"byteOffset":0,"componentType":5126,"count":270,"type":"VEC3","min":[-0.65,-0.014055882366593846,-1.46],"max":[1.46030917718612,1.1630183655538913,1.2858461528034537]},{"bufferView":3,"byteOffset":0,"componentType":5126,"count":270,"type":"VEC3"},{"bufferView":4,"byteOffset":0,"componentType":5126,"count":2556,"type":"VEC3","min":[-1.5350000000000001,0,-1.89],"max":[1.4,1.8326561789347946,1.1508792597987956]},{"bufferView":5,"byteOffset":0,"componentType":5126,"count":2556,"type":"VEC3"}]}