{"asset":{"version":"2.0","generator":"tools/build-hardware.mjs"},"scene":0,"scenes":[{"nodes":[0]}],"nodes":[{"name":"lunar-rover","mesh":0,"children":[1,2]},{"name":"gold","mesh":1},{"name":"dark","mesh":2}],"meshes":[{"name":"silver","primitives":[{"attributes":{"POSITION":0,"NORMAL":1},"material":0,"mode":4}]},{"name":"gold","primitives":[{"attributes":{"POSITION":2,"NORMAL":3},"material":1,"mode":4}]},{"name":"dark","primitives":[{"attributes":{"POSITION":4,"NORMAL":5},"material":2,"mode":4}]}],"materials":[{"name":"silver","doubleSided":true,"pbrMetallicRoughness":{"baseColorFactor":[0.72,0.72,0.75,1],"metallicFactor":0.2,"roughnessFactor":0.7}},{"name":"gold","doubleSided":true,"pbrMetallicRoughness":{"baseColorFactor":[0.73,0.53,0.19,1],"metallicFactor":0.7,"roughnessFactor":0.45}},{"name":"dark","doubleSided":true,"pbrMetallicRoughness":{"baseColorFactor":[0.06,0.06,0.07,1],"metallicFactor":0.1,"roughnessFactor":0.9}}],"buffers":[{"byteLength":89856,"uri":"data:application/octet-stream;base64,"}],"bufferViews":[{"buffer":0,"byteOffset":0,"byteLength":22680,"target":34962},{"buffer":0,"byteOffset":22680,"byteLength":22680,"target":34962},{"buffer":0,"byteOffset":45360,"byteLength":2592,"target":34962},{"buffer":0,"byteOffset":47952,"byteLength":2592,"target":34962},{"buffer":0,"byteOffset":50544,"byteLength":19656,"target":34962},{"buffer":0,"byteOffset":70200,"byteLength":19656,"target":34962}],"accessors":[{"bufferView":0,"byteOffset":0,"componentType":5126,"count":1890,"type":"VEC3","min":[-0.9502834532816113,0.13,-1.55],"max":[0.9502834532816113,1.7241488618646907,1.55]},{"bufferView":1,"byteOffset":0,"componentType":5126,"count":1890,"type":"VEC3"},{"bufferView":2,"byteOffset":0,"componentType":5126,"count":216,"type":"VEC3","min":[-0.4,0.5449999999999999,-1.39],"max":[0.44000000000000006,0.88,1.496]},{"bufferView":3,"byteOffset":0,"componentType":5126,"count":216,"type":"VEC3"},{"bufferView":4,"byteOffset":0,"componentType":5126,"count":1638,"type":"VEC3","min":[-0.895,0,-1.559],"max":[0.895,1.7041488618646907,1.559]},{"bufferView":5,"byteOffset":0,"componentType":5126,"count":1638,"type":"VEC3"}]}