{"asset":{"version":"2.0","generator":"tools/build-demo-models.mjs"},"scene":0,"scenes":[{"nodes":[0]}],"nodes":[{"name":"mars-ares","mesh":0,"children":[1]},{"name":"gold","mesh":1}],"meshes":[{"primitives":[{"attributes":{"POSITION":0,"NORMAL":1},"material":0,"mode":4}],"name":"grey"},{"primitives":[{"attributes":{"POSITION":2,"NORMAL":3},"material":1,"mode":4}],"name":"gold"}],"materials":[{"name":"grey","doubleSided":true,"pbrMetallicRoughness":{"baseColorFactor":[0.62,0.62,0.66,1],"metallicFactor":0.15,"roughnessFactor":0.85}},{"name":"gold","doubleSided":true,"pbrMetallicRoughness":{"baseColorFactor":[0.73,0.53,0.19,1],"metallicFactor":0.7,"roughnessFactor":0.45}}],"buffers":[{"byteLength":15840,"uri":"data:application/octet-stream;base64,"}],"bufferViews":[{"buffer":0,"byteOffset":0,"byteLength":5472,"target":34962},{"buffer":0,"byteOffset":5472,"byteLength":5472,"target":34962},{"buffer":0,"byteOffset":10944,"byteLength":2448,"target":34962},{"buffer":0,"byteOffset":13392,"byteLength":2448,"target":34962}],"accessors":[{"bufferView":0,"byteOffset":0,"componentType":5126,"count":456,"type":"VEC3","min":[-2.45,0,-1.4623918682727355],"max":[1.9,5.9,1.4623918682727355]},{"bufferView":1,"byteOffset":0,"componentType":5126,"count":456,"type":"VEC3"},{"bufferView":2,"byteOffset":0,"componentType":5126,"count":204,"type":"VEC3","min":[-1.56,1.9500000000000002,-1.5208875430036448],"max":[1.56,3.4,1.53]},{"bufferView":3,"byteOffset":0,"componentType":5126,"count":204,"type":"VEC3"}]}