{"asset":{"version":"2.0","generator":"tools/build-demo-models.mjs"},"scene":0,"scenes":[{"nodes":[0]}],"nodes":[{"name":"mars-rover","mesh":0,"children":[1]},{"name":"gold","mesh":1}],"meshes":[{"primitives":[{"attributes":{"POSITION":0,"NORMAL":1},"material":0,"mode":4}],"name":"grey"},{"primitives":[{"attributes":{"POSITION":2,"NORMAL":3},"material":1,"mode":4}],"name":"gold"}],"materials":[{"name":"grey","doubleSided":true,"pbrMetallicRoughness":{"baseColorFactor":[0.62,0.62,0.66,1],"metallicFactor":0.15,"roughnessFactor":0.85}},{"name":"gold","doubleSided":true,"pbrMetallicRoughness":{"baseColorFactor":[0.73,0.53,0.19,1],"metallicFactor":0.7,"roughnessFactor":0.45}}],"buffers":[{"byteLength":22464,"uri":"data:application/octet-stream;base64,"}],"bufferViews":[{"buffer":0,"byteOffset":0,"byteLength":7920,"target":34962},{"buffer":0,"byteOffset":7920,"byteLength":7920,"target":34962},{"buffer":0,"byteOffset":15840,"byteLength":3312,"target":34962},{"buffer":0,"byteOffset":19152,"byteLength":3312,"target":34962}],"accessors":[{"bufferView":0,"byteOffset":0,"componentType":5126,"count":660,"type":"VEC3","min":[-0.8862958245626431,0.19000000000000003,-0.8400000000000001],"max":[1.07,2.07,0.8400000000000001]},{"bufferView":1,"byteOffset":0,"componentType":5126,"count":660,"type":"VEC3"},{"bufferView":2,"byteOffset":0,"componentType":5126,"count":276,"type":"VEC3","min":[-0.8500000000000001,0.19000000000000003,-0.8400000000000001],"max":[0.26629582456264306,1.1500000000000001,0.8400000000000001]},{"bufferView":3,"byteOffset":0,"componentType":5126,"count":276,"type":"VEC3"}]}