{"asset":{"version":"2.0","generator":"tools/build-demo-models.mjs"},"scene":0,"scenes":[{"nodes":[0]}],"nodes":[{"name":"mars-depot","mesh":0,"children":[1]},{"name":"gold","mesh":1}],"meshes":[{"primitives":[{"attributes":{"POSITION":0,"NORMAL":1},"material":0,"mode":4}],"name":"grey"},{"primitives":[{"attributes":{"POSITION":2,"NORMAL":3},"material":1,"mode":4}],"name":"gold"}],"materials":[{"name":"grey","doubleSided":true,"pbrMetallicRoughness":{"baseColorFactor":[0.62,0.62,0.66,1],"metallicFactor":0.15,"roughnessFactor":0.85}},{"name":"gold","doubleSided":true,"pbrMetallicRoughness":{"baseColorFactor":[0.73,0.53,0.19,1],"metallicFactor":0.7,"roughnessFactor":0.45}}],"buffers":[{"byteLength":19008,"uri":"data:application/octet-stream;base64,"}],"bufferViews":[{"buffer":0,"byteOffset":0,"byteLength":1008,"target":34962},{"buffer":0,"byteOffset":1008,"byteLength":1008,"target":34962},{"buffer":0,"byteOffset":2016,"byteLength":8496,"target":34962},{"buffer":0,"byteOffset":10512,"byteLength":8496,"target":34962}],"accessors":[{"bufferView":0,"byteOffset":0,"componentType":5126,"count":84,"type":"VEC3","min":[-0.25,0,-0.25],"max":[0.4,1.1,0.4]},{"bufferView":1,"byteOffset":0,"componentType":5126,"count":84,"type":"VEC3"},{"bufferView":2,"byteOffset":0,"componentType":5126,"count":708,"type":"VEC3","min":[-0.34915164685891353,0,-0.27063884615952233],"max":[0.49,1.1300000000000001,0.35000000000000003]},{"bufferView":3,"byteOffset":0,"componentType":5126,"count":708,"type":"VEC3"}]}