{"asset":{"version":"2.0","generator":"tools/build-demo-models.mjs"},"scene":0,"scenes":[{"nodes":[0]}],"nodes":[{"name":"mars-airfield","mesh":0,"children":[1]},{"name":"gold","mesh":1}],"meshes":[{"primitives":[{"attributes":{"POSITION":0,"NORMAL":1},"material":0,"mode":4}],"name":"grey"},{"primitives":[{"attributes":{"POSITION":2,"NORMAL":3},"material":1,"mode":4}],"name":"gold"}],"materials":[{"name":"grey","doubleSided":true,"pbrMetallicRoughness":{"baseColorFactor":[0.62,0.62,0.66,1],"metallicFactor":0.15,"roughnessFactor":0.85}},{"name":"gold","doubleSided":true,"pbrMetallicRoughness":{"baseColorFactor":[0.73,0.53,0.19,1],"metallicFactor":0.7,"roughnessFactor":0.45}}],"buffers":[{"byteLength":10944,"uri":"data:application/octet-stream;base64,"}],"bufferViews":[{"buffer":0,"byteOffset":0,"byteLength":5040,"target":34962},{"buffer":0,"byteOffset":5040,"byteLength":5040,"target":34962},{"buffer":0,"byteOffset":10080,"byteLength":432,"target":34962},{"buffer":0,"byteOffset":10512,"byteLength":432,"target":34962}],"accessors":[{"bufferView":0,"byteOffset":0,"componentType":5126,"count":420,"type":"VEC3","min":[-0.6079002560419042,0,-0.6079002560419041],"max":[0.6079002560419042,0.6675,0.6079002560419042]},{"bufferView":1,"byteOffset":0,"componentType":5126,"count":420,"type":"VEC3"},{"bufferView":2,"byteOffset":0,"componentType":5126,"count":36,"type":"VEC3","min":[-0.25,0.59,-0.03],"max":[0.25,0.61,0.03]},{"bufferView":3,"byteOffset":0,"componentType":5126,"count":36,"type":"VEC3"}]}