{"asset":{"version":"2.0","generator":"tools/build-demo-models.mjs"},"scene":0,"scenes":[{"nodes":[0]}],"nodes":[{"name":"moon-seismometer","mesh":0,"children":[1]},{"name":"gold","mesh":1}],"meshes":[{"primitives":[{"attributes":{"POSITION":0,"NORMAL":1},"material":0,"mode":4}],"name":"grey"},{"primitives":[{"attributes":{"POSITION":2,"NORMAL":3},"material":1,"mode":4}],"name":"gold"}],"materials":[{"name":"grey","doubleSided":true,"pbrMetallicRoughness":{"baseColorFactor":[0.62,0.62,0.66,1],"metallicFactor":0.15,"roughnessFactor":0.85}},{"name":"gold","doubleSided":true,"pbrMetallicRoughness":{"baseColorFactor":[0.73,0.53,0.19,1],"metallicFactor":0.7,"roughnessFactor":0.45}}],"buffers":[{"byteLength":12384,"uri":"data:application/octet-stream;base64,"}],"bufferViews":[{"buffer":0,"byteOffset":0,"byteLength":4320,"target":34962},{"buffer":0,"byteOffset":4320,"byteLength":4320,"target":34962},{"buffer":0,"byteOffset":8640,"byteLength":1872,"target":34962},{"buffer":0,"byteOffset":10512,"byteLength":1872,"target":34962}],"accessors":[{"bufferView":0,"byteOffset":0,"componentType":5126,"count":360,"type":"VEC3","min":[-0.45,0.085,-0.45],"max":[0.45,0.76,0.45]},{"bufferView":1,"byteOffset":0,"componentType":5126,"count":360,"type":"VEC3"},{"bufferView":2,"byteOffset":0,"componentType":5126,"count":156,"type":"VEC3","min":[-0.28,0.77,-0.28],"max":[0.28,0.925,0.28]},{"bufferView":3,"byteOffset":0,"componentType":5126,"count":156,"type":"VEC3"}]}