{"asset":{"version":"2.0","generator":"tools/build-demo-models.mjs"},"scene":0,"scenes":[{"nodes":[0]}],"nodes":[{"name":"moon-eagle","mesh":0,"children":[1]},{"name":"gold","mesh":1}],"meshes":[{"primitives":[{"attributes":{"POSITION":0,"NORMAL":1},"material":0,"mode":4}],"name":"grey"},{"primitives":[{"attributes":{"POSITION":2,"NORMAL":3},"material":1,"mode":4}],"name":"gold"}],"materials":[{"name":"grey","doubleSided":true,"pbrMetallicRoughness":{"baseColorFactor":[0.62,0.62,0.66,1],"metallicFactor":0.15,"roughnessFactor":0.85}},{"name":"gold","doubleSided":true,"pbrMetallicRoughness":{"baseColorFactor":[0.73,0.53,0.19,1],"metallicFactor":0.7,"roughnessFactor":0.45}}],"buffers":[{"byteLength":18720,"uri":"data:application/octet-stream;base64,"}],"bufferViews":[{"buffer":0,"byteOffset":0,"byteLength":7200,"target":34962},{"buffer":0,"byteOffset":7200,"byteLength":7200,"target":34962},{"buffer":0,"byteOffset":14400,"byteLength":2160,"target":34962},{"buffer":0,"byteOffset":16560,"byteLength":2160,"target":34962}],"accessors":[{"bufferView":0,"byteOffset":0,"componentType":5126,"count":600,"type":"VEC3","min":[-1.9,-0.4,-1.9],"max":[1.9,3.65,1.9]},{"bufferView":1,"byteOffset":0,"componentType":5126,"count":600,"type":"VEC3"},{"bufferView":2,"byteOffset":0,"componentType":5126,"count":180,"type":"VEC3","min":[-1.9,1.7499999999999998,-1.9],"max":[1.9,2.95,1.9]},{"bufferView":3,"byteOffset":0,"componentType":5126,"count":180,"type":"VEC3"}]}