{"asset":{"version":"2.0","generator":"tools/build-demo-models.mjs"},"scene":0,"scenes":[{"nodes":[0]}],"nodes":[{"name":"moon-retroreflector","mesh":0,"children":[1]},{"name":"gold","mesh":1}],"meshes":[{"primitives":[{"attributes":{"POSITION":0,"NORMAL":1},"material":0,"mode":4}],"name":"grey"},{"primitives":[{"attributes":{"POSITION":2,"NORMAL":3},"material":1,"mode":4}],"name":"gold"}],"materials":[{"name":"grey","doubleSided":true,"pbrMetallicRoughness":{"baseColorFactor":[0.62,0.62,0.66,1],"metallicFactor":0.15,"roughnessFactor":0.85}},{"name":"gold","doubleSided":true,"pbrMetallicRoughness":{"baseColorFactor":[0.73,0.53,0.19,1],"metallicFactor":0.7,"roughnessFactor":0.45}}],"buffers":[{"byteLength":10368,"uri":"data:application/octet-stream;base64,"}],"bufferViews":[{"buffer":0,"byteOffset":0,"byteLength":2592,"target":34962},{"buffer":0,"byteOffset":2592,"byteLength":2592,"target":34962},{"buffer":0,"byteOffset":5184,"byteLength":2592,"target":34962},{"buffer":0,"byteOffset":7776,"byteLength":2592,"target":34962}],"accessors":[{"bufferView":0,"byteOffset":0,"componentType":5126,"count":216,"type":"VEC3","min":[-0.4,-0.010000000000000009,-0.25],"max":[0.4,0.645,0.25]},{"bufferView":1,"byteOffset":0,"componentType":5126,"count":216,"type":"VEC3"},{"bufferView":2,"byteOffset":0,"componentType":5126,"count":216,"type":"VEC3","min":[-0.35,0.64,-0.22],"max":[0.35,0.7000000000000001,0.22]},{"bufferView":3,"byteOffset":0,"componentType":5126,"count":216,"type":"VEC3"}]}