{"asset":{"version":"2.0","generator":"tools/build-demo-models.mjs"},"scene":0,"scenes":[{"nodes":[0]}],"nodes":[{"name":"moon-solar-wind","mesh":0,"children":[1]},{"name":"gold","mesh":1}],"meshes":[{"primitives":[{"attributes":{"POSITION":0,"NORMAL":1},"material":0,"mode":4}],"name":"grey"},{"primitives":[{"attributes":{"POSITION":2,"NORMAL":3},"material":1,"mode":4}],"name":"gold"}],"materials":[{"name":"grey","doubleSided":true,"pbrMetallicRoughness":{"baseColorFactor":[0.62,0.62,0.66,1],"metallicFactor":0.15,"roughnessFactor":0.85}},{"name":"gold","doubleSided":true,"pbrMetallicRoughness":{"baseColorFactor":[0.73,0.53,0.19,1],"metallicFactor":0.7,"roughnessFactor":0.45}}],"buffers":[{"byteLength":4032,"uri":"data:application/octet-stream;base64,"}],"bufferViews":[{"buffer":0,"byteOffset":0,"byteLength":1584,"target":34962},{"buffer":0,"byteOffset":1584,"byteLength":1584,"target":34962},{"buffer":0,"byteOffset":3168,"byteLength":432,"target":34962},{"buffer":0,"byteOffset":3600,"byteLength":432,"target":34962}],"accessors":[{"bufferView":0,"byteOffset":0,"componentType":5126,"count":132,"type":"VEC3","min":[-0.09,0,-0.07],"max":[0.09,1.5,0.07]},{"bufferView":1,"byteOffset":0,"componentType":5126,"count":132,"type":"VEC3"},{"bufferView":2,"byteOffset":0,"componentType":5126,"count":36,"type":"VEC3","min":[-0.65,1.41,-0.17500000000000002],"max":[0.65,1.43,0.375]},{"bufferView":3,"byteOffset":0,"componentType":5126,"count":36,"type":"VEC3"}]}