{"asset":{"version":"2.0","generator":"tools/build-hardware.mjs"},"scene":0,"scenes":[{"nodes":[0]}],"nodes":[{"name":"pathfinder-sojourner","mesh":0,"children":[1,2]},{"name":"gold","mesh":1},{"name":"dark","mesh":2}],"meshes":[{"name":"silver","primitives":[{"attributes":{"POSITION":0,"NORMAL":1},"material":0,"mode":4}]},{"name":"gold","primitives":[{"attributes":{"POSITION":2,"NORMAL":3},"material":1,"mode":4}]},{"name":"dark","primitives":[{"attributes":{"POSITION":4,"NORMAL":5},"material":2,"mode":4}]}],"materials":[{"name":"silver","doubleSided":true,"pbrMetallicRoughness":{"baseColorFactor":[0.72,0.72,0.75,1],"metallicFactor":0.2,"roughnessFactor":0.7}},{"name":"gold","doubleSided":true,"pbrMetallicRoughness":{"baseColorFactor":[0.73,0.53,0.19,1],"metallicFactor":0.7,"roughnessFactor":0.45}},{"name":"dark","doubleSided":true,"pbrMetallicRoughness":{"baseColorFactor":[0.06,0.06,0.07,1],"metallicFactor":0.1,"roughnessFactor":0.9}}],"buffers":[{"byteLength":74736,"uri":"data:application/octet-stream;base64,"}],"bufferViews":[{"buffer":0,"byteOffset":0,"byteLength":18216,"target":34962},{"buffer":0,"byteOffset":18216,"byteLength":18216,"target":34962},{"buffer":0,"byteOffset":36432,"byteLength":4032,"target":34962},{"buffer":0,"byteOffset":40464,"byteLength":4032,"target":34962},{"buffer":0,"byteOffset":44496,"byteLength":15120,"target":34962},{"buffer":0,"byteOffset":59616,"byteLength":15120,"target":34962}],"accessors":[{"bufferView":0,"byteOffset":0,"componentType":5126,"count":1518,"type":"VEC3","min":[-1.8646103742014901,-0.012353419098975749,-1.8311943729353377],"max":[1.706565720623211,2,2.151939907047435]},{"bufferView":1,"byteOffset":0,"componentType":5126,"count":1518,"type":"VEC3"},{"bufferView":2,"byteOffset":0,"componentType":5126,"count":336,"type":"VEC3","min":[-0.55,0.15999999999999998,-0.5],"max":[1.3057380660380407,1.24,2.2000240862556275]},{"bufferView":3,"byteOffset":0,"componentType":5126,"count":336,"type":"VEC3"},{"bufferView":4,"byteOffset":0,"componentType":5126,"count":1260,"type":"VEC3","min":[-1.7790788474118933,0,-1.7291227244321739],"max":[1.6050497262271517,1.9400000000000002,2.2098587209796205]},{"bufferView":5,"byteOffset":0,"componentType":5126,"count":1260,"type":"VEC3"}]}