{"asset":{"version":"2.0","generator":"tools/build-demo-models.mjs"},"scene":0,"scenes":[{"nodes":[0]}],"nodes":[{"name":"solar-l2-observatory","mesh":0,"children":[1]},{"name":"gold","mesh":1}],"meshes":[{"primitives":[{"attributes":{"POSITION":0,"NORMAL":1},"material":0,"mode":4}],"name":"grey"},{"primitives":[{"attributes":{"POSITION":2,"NORMAL":3},"material":1,"mode":4}],"name":"gold"}],"materials":[{"name":"grey","doubleSided":true,"pbrMetallicRoughness":{"baseColorFactor":[0.62,0.62,0.66,1],"metallicFactor":0.15,"roughnessFactor":0.85}},{"name":"gold","doubleSided":true,"pbrMetallicRoughness":{"baseColorFactor":[0.73,0.53,0.19,1],"metallicFactor":0.7,"roughnessFactor":0.45}}],"buffers":[{"byteLength":23328,"uri":"data:application/octet-stream;base64,"}],"bufferViews":[{"buffer":0,"byteOffset":0,"byteLength":5616,"target":34962},{"buffer":0,"byteOffset":5616,"byteLength":5616,"target":34962},{"buffer":0,"byteOffset":11232,"byteLength":6048,"target":34962},{"buffer":0,"byteOffset":17280,"byteLength":6048,"target":34962}],"accessors":[{"bufferView":0,"byteOffset":0,"componentType":5126,"count":468,"type":"VEC3","min":[-7.449999999999999,0.050000000000000044,-1.1],"max":[7.449999999999999,4.15,1.1]},{"bufferView":1,"byteOffset":0,"componentType":5126,"count":468,"type":"VEC3"},{"bufferView":2,"byteOffset":0,"componentType":5126,"count":504,"type":"VEC3","min":[-2.45,3.27,-1.557979701408205],"max":[2.45,3.3299999999999996,1.5579797014082053]},{"bufferView":3,"byteOffset":0,"componentType":5126,"count":504,"type":"VEC3"}]}