{"asset":{"version":"2.0","generator":"tools/build-demo-models.mjs"},"scene":0,"scenes":[{"nodes":[0]}],"nodes":[{"name":"solar-sun-probe","mesh":0,"children":[1]},{"name":"gold","mesh":1}],"meshes":[{"primitives":[{"attributes":{"POSITION":0,"NORMAL":1},"material":0,"mode":4}],"name":"grey"},{"primitives":[{"attributes":{"POSITION":2,"NORMAL":3},"material":1,"mode":4}],"name":"gold"}],"materials":[{"name":"grey","doubleSided":true,"pbrMetallicRoughness":{"baseColorFactor":[0.62,0.62,0.66,1],"metallicFactor":0.15,"roughnessFactor":0.85}},{"name":"gold","doubleSided":true,"pbrMetallicRoughness":{"baseColorFactor":[0.73,0.53,0.19,1],"metallicFactor":0.7,"roughnessFactor":0.45}}],"buffers":[{"byteLength":18720,"uri":"data:application/octet-stream;base64,"}],"bufferViews":[{"buffer":0,"byteOffset":0,"byteLength":5328,"target":34962},{"buffer":0,"byteOffset":5328,"byteLength":5328,"target":34962},{"buffer":0,"byteOffset":10656,"byteLength":4032,"target":34962},{"buffer":0,"byteOffset":14688,"byteLength":4032,"target":34962}],"accessors":[{"bufferView":0,"byteOffset":0,"componentType":5126,"count":444,"type":"VEC3","min":[-1.3,1.0950000000000002,-1.3],"max":[1.3,2.55,1.3]},{"bufferView":1,"byteOffset":0,"componentType":5126,"count":444,"type":"VEC3"},{"bufferView":2,"byteOffset":0,"componentType":5126,"count":336,"type":"VEC3","min":[-3.3,0.92,-1.8806607395737722],"max":[3.3,1.08,1.8806607395737722]},{"bufferView":3,"byteOffset":0,"componentType":5126,"count":336,"type":"VEC3"}]}