{"asset":{"version":"2.0","generator":"tools/build-surveyor.mjs"},"scene":0,"scenes":[{"nodes":[0]}],"nodes":[{"name":"surveyor-3","mesh":0,"children":[1,2]},{"name":"gold","mesh":1},{"name":"dark","mesh":2}],"meshes":[{"name":"silver","primitives":[{"attributes":{"POSITION":0,"NORMAL":1},"material":0,"mode":4}]},{"name":"gold","primitives":[{"attributes":{"POSITION":2,"NORMAL":3},"material":1,"mode":4}]},{"name":"dark","primitives":[{"attributes":{"POSITION":4,"NORMAL":5},"material":2,"mode":4}]}],"materials":[{"name":"silver","doubleSided":true,"pbrMetallicRoughness":{"baseColorFactor":[0.72,0.72,0.75,1],"metallicFactor":0.2,"roughnessFactor":0.7}},{"name":"gold","doubleSided":true,"pbrMetallicRoughness":{"baseColorFactor":[0.73,0.53,0.19,1],"metallicFactor":0.7,"roughnessFactor":0.45}},{"name":"dark","doubleSided":true,"pbrMetallicRoughness":{"baseColorFactor":[0.06,0.06,0.07,1],"metallicFactor":0.1,"roughnessFactor":0.9}}],"buffers":[{"byteLength":41904,"uri":"data:application/octet-stream;base64,"}],"bufferViews":[{"buffer":0,"byteOffset":0,"byteLength":10944,"target":34962},{"buffer":0,"byteOffset":10944,"byteLength":10944,"target":34962},{"buffer":0,"byteOffset":21888,"byteLength":1944,"target":34962},{"buffer":0,"byteOffset":23832,"byteLength":1944,"target":34962},{"buffer":0,"byteOffset":25776,"byteLength":8064,"target":34962},{"buffer":0,"byteOffset":33840,"byteLength":8064,"target":34962}],"accessors":[{"bufferView":0,"byteOffset":0,"componentType":5126,"count":912,"type":"VEC3","min":[-2.020614872174388,0.045,-1.2300000000000009],"max":[2.020614872174387,2.96,2.31]},{"bufferView":1,"byteOffset":0,"componentType":5126,"count":912,"type":"VEC3"},{"bufferView":2,"byteOffset":0,"componentType":5126,"count":162,"type":"VEC3","min":[-1.9052259580157729,0.13187356715800475,-1.1189711431703007],"max":[1.9052259580157718,1.9300000000000002,2.186975058398171]},{"bufferView":3,"byteOffset":0,"componentType":5126,"count":162,"type":"VEC3"},{"bufferView":4,"byteOffset":0,"componentType":5126,"count":672,"type":"VEC3","min":[-1.4257326043406997,0.27499999999999997,-0.8340928146942983],"max":[0.6738972745734181,3.15,0.765]},{"bufferView":5,"byteOffset":0,"componentType":5126,"count":672,"type":"VEC3"}]}